<?xml version="1.0" encoding="UTF-8"?>
<svg  viewBox="0 0 245 65" xmlns="http://www.w3.org/2000/svg">
<symbol id="refrigerios">
<path d="m28.696 54.744c-0.9387 0-2.048-0.5973-3.328-1.792-1.2373-1.152-2.5387-2.688-3.904-4.608-1.3653-1.8773-2.7307-3.9467-4.096-6.208-1.3227-2.2613-2.56-4.5227-3.712-6.784-1.1093-2.2613-2.048-4.288-2.816-6.08-1.1947 4.1813-2.3467 8.2987-3.456 12.352-1.1093 4.0107-2.1547 7.6587-3.136 10.944-1.0667 0-2.048-0.2987-2.944-0.896-0.85333-0.5973-1.28-1.3653-1.28-2.304 0-0.4693 0.10667-1.0453 0.32-1.728 0.21333-0.64 0.40533-1.2373 0.576-1.792 1.0667-3.3707 2.112-6.5493 3.136-9.536s2.0267-5.8667 3.008-8.64 1.984-5.5253 3.008-8.256c1.0667-2.7307 2.176-5.4827 3.328-8.256 1.152-2.7733 2.3893-5.6533 3.712-8.64-1.792 0.29866-3.3493 0.74667-4.672 1.344-1.3227 0.55467-2.3893 1.088-3.2 1.6-0.81067 0.46933-1.3653 0.704-1.664 0.704-0.17067 0-0.42667-0.08533-0.768-0.256-0.29867-0.21333-0.576-0.448-0.832-0.704-0.256-0.29867-0.384-0.55467-0.384-0.768 1.1093-0.46934 2.4107-0.98134 3.904-1.536 1.4933-0.55467 3.136-1.024 4.928-1.408s3.648-0.576 5.568-0.576c1.8347 0 3.6907 0.23466 5.568 0.704 1.92 0.42666 3.6693 1.1307 5.248 2.112 1.6213 0.93866 2.9227 2.176 3.904 3.712 0.9813 1.4933 1.472 3.3067 1.472 5.44 0 2.0907-0.4907 3.904-1.472 5.44-0.9387 1.4933-2.1973 2.752-3.776 3.776-1.536 1.024-3.2213 1.856-5.056 2.496-1.8347 0.5973-3.648 1.0667-5.44 1.408-1.792 0.2987-3.4133 0.512-4.864 0.64-1.4507 0.0853-2.5387 0.128-3.264 0.128 1.3227 2.2613 2.5813 4.4587 3.776 6.592s2.496 4.2667 3.904 6.4c1.408 2.0907 3.072 4.2027 4.992 6.336s4.2453 4.3093 6.976 6.528c-0.256 0.5547-0.7253 1.0453-1.408 1.472-0.64 0.4267-1.2587 0.64-1.856 0.64zm-16.832-28.992c2.304-0.128 4.6293-0.4907 6.976-1.088 2.3893-0.64 4.5653-1.5147 6.528-2.624 1.9627-1.152 3.5413-2.5813 4.736-4.288 1.1947-1.7493 1.792-3.8187 1.792-6.208 0-2.3467-0.5547-4.1813-1.664-5.504-1.1093-1.3653-2.5387-2.3253-4.288-2.88-1.7493-0.59734-3.584-0.896-5.504-0.896-1.4507 2.944-2.9013 6.4853-4.352 10.624-1.4507 4.096-2.8587 8.384-4.224 12.864zm29.048 24.064c-2.6027 0-4.5653-0.7253-5.888-2.176-1.28-1.408-1.92-3.1573-1.92-5.248 0-1.92 0.4693-3.9467 1.408-6.08 0.9813-2.1333 2.2613-4.1387 3.84-6.016 1.6213-1.8773 3.392-3.392 5.312-4.544 1.92-1.1947 3.8187-1.792 5.696-1.792 0.9813 0 1.8773 0.256 2.688 0.768 0.8533 0.512 1.28 1.5573 1.28 3.136 0 1.6213-0.4907 3.1573-1.472 4.608-0.9387 1.408-2.1973 2.6667-3.776 3.776-1.536 1.1093-3.2427 2.0267-5.12 2.752-1.8347 0.6827-3.6693 1.1093-5.504 1.28-0.0853 0.4267-0.1493 0.832-0.192 1.216s-0.064 0.7467-0.064 1.088c0 0.64 0.064 1.28 0.192 1.92 0.1707 0.64 0.448 1.2373 0.832 1.792 0.384 0.512 0.896 0.9173 1.536 1.216 0.6827 0.2987 1.5147 0.448 2.496 0.448 1.8347 0 3.648-0.512 5.44-1.536 1.792-1.0667 3.456-2.4533 4.992-4.16s2.8373-3.584 3.904-5.632l0.768 0.576c-1.152 2.56-2.624 4.7787-4.416 6.656-1.7493 1.8773-3.6693 3.328-5.76 4.352-2.048 1.0667-4.1387 1.6-6.272 1.6zm-3.136-10.752c1.152-0.384 2.4533-0.9387 3.904-1.664 1.4507-0.768 2.8373-1.664 4.16-2.688 1.3653-1.024 2.4747-2.1547 3.328-3.392 0.896-1.2373 1.344-2.5387 1.344-3.904 0-0.4693-0.0853-0.832-0.256-1.088s-0.5333-0.384-1.088-0.384c-1.024 0-2.112 0.4053-3.264 1.216-1.152 0.768-2.2613 1.792-3.328 3.072s-2.0267 2.688-2.88 4.224-1.4933 3.072-1.92 4.608zm16.704 25.856c-0.4267 0-0.9173-0.1493-1.472-0.448-0.5547-0.256-1.024-0.7893-1.408-1.6-0.4267-0.8107-0.64-2.0053-0.64-3.584 0-1.8773 0.32-4.3307 0.96-7.36 0.64-2.9867 1.5147-6.2933 2.624-9.92s2.3893-7.3387 3.84-11.136c1.4507-3.84 3.008-7.5307 4.672-11.072 1.7067-3.584 3.4347-6.784 5.184-9.6 1.792-2.8587 3.5413-5.12 5.248-6.784s3.328-2.496 4.864-2.496c0.896 0 1.472 0.27733 1.728 0.832 0.2987 0.55467 0.448 1.216 0.448 1.984 0 1.8347-0.512 3.84-1.536 6.016-0.9813 2.176-2.304 4.3733-3.968 6.592-1.664 2.176-3.4987 4.2667-5.504 6.272-2.0053 1.9627-4.032 3.648-6.08 5.056-0.2133 0.512-0.4267 1.0453-0.64 1.6-0.1707 0.512-0.3627 1.0453-0.576 1.6 0.4693 0.0853 0.832 0.3413 1.088 0.768 0.2987 0.384 0.4693 0.8107 0.512 1.28 0.2987 1.92 0.6187 3.648 0.96 5.184 0.3413 1.4933 0.8533 2.6667 1.536 3.52 0.7253 0.8533 1.7493 1.28 3.072 1.28 1.4933 0 2.752-0.5333 3.776-1.6 1.024-1.1093 2.1333-2.6667 3.328-4.672l0.96 0.64c-1.0667 2.56-2.432 4.416-4.096 5.568-1.6213 1.152-3.0507 1.728-4.288 1.728-0.768 0-1.5787-0.192-2.432-0.576-0.8107-0.384-1.5787-0.896-2.304-1.536 0 2.688-0.2987 5.3547-0.896 8-0.5547 2.6453-1.3013 5.056-2.24 7.232s-1.984 3.9253-3.136 5.248-2.3467 1.984-3.584 1.984zm1.664-3.072c0.4693 0 1.0027-0.4267 1.6-1.28s1.1733-1.984 1.728-3.392c0.5973-1.3653 1.1307-2.88 1.6-4.544s0.8533-3.328 1.152-4.992 0.448-3.1573 0.448-4.48-0.1707-2.5173-0.512-3.584c-0.3413-1.1093-0.896-2.4107-1.664-3.904-1.0667 3.2-2.0267 6.2933-2.88 9.28s-1.5147 5.6747-1.984 8.064-0.704 4.3093-0.704 5.76c0 2.048 0.4053 3.072 1.216 3.072zm8.32-36.8c2.7733-2.56 5.1627-5.12 7.168-7.68 2.048-2.6027 3.6267-4.9067 4.736-6.912 1.1093-2.048 1.664-3.4987 1.664-4.352 0-0.59734-0.2987-0.896-0.896-0.896-1.1093 0-2.368 0.91733-3.776 2.752-1.408 1.792-2.88 4.1813-4.416 7.168s-3.0293 6.2933-4.48 9.92zm21.858 23.616c-1.4507 0-2.6027-0.384-3.456-1.152-0.8107-0.768-1.216-1.7707-1.216-3.008 0-1.28 0.2987-2.624 0.896-4.032s1.1733-2.7947 1.728-4.16c0.5973-1.408 0.896-2.6667 0.896-3.776 0-1.3653-0.4053-2.368-1.216-3.008-0.768-0.6827-1.5573-1.3013-2.368-1.856-0.9813 2.5173-2.0053 4.9067-3.072 7.168s-1.9413 3.968-2.624 5.12l-0.576-1.088c0.5973-1.1093 1.3653-2.7307 2.304-4.864 0.9813-2.1333 1.9413-4.5653 2.88-7.296-0.4267-0.4267-0.64-0.9387-0.64-1.536 0-1.28 0.3627-2.3253 1.088-3.136s1.2587-1.216 1.6-1.216c0.4693 0 0.7253 0.2133 0.768 0.64 0.0853 0.384 0.128 0.6827 0.128 0.896s-0.128 0.64-0.384 1.28c-0.2133 0.5973-0.32 0.96-0.32 1.088 0 0.5973 0.32 1.152 0.96 1.664 0.6827 0.4693 1.4507 1.024 2.304 1.664 0.8533 0.5973 1.6 1.344 2.24 2.24 0.6827 0.8533 1.024 1.9627 1.024 3.328 0 1.28-0.2773 2.5813-0.832 3.904-0.512 1.3227-1.0453 2.5813-1.6 3.776-0.512 1.1947-0.768 2.24-0.768 3.136 0 0.768 0.192 1.28 0.576 1.536s0.832 0.384 1.344 0.384c1.024 0 2.0693-0.32 3.136-0.96 1.1093-0.64 2.176-1.4507 3.2-2.432s1.9413-2.0053 2.752-3.072c0.8107-1.1093 1.408-2.1333 1.792-3.072l0.832 0.64c-0.8107 1.792-1.92 3.5627-3.328 5.312-1.408 1.7067-2.9867 3.1147-4.736 4.224-1.7067 1.1093-3.4773 1.664-5.312 1.664zm15.786 0c-1.664 0-2.9013-0.5333-3.712-1.6-0.8107-1.024-1.216-2.2827-1.216-3.776 0-0.9813 0.1707-2.2187 0.512-3.712 0.384-1.4933 0.8747-3.0507 1.472-4.672 0.5973-1.664 1.28-3.2213 2.048-4.672 0.811-1.4507 1.664-2.624 2.56-3.52 0.896-0.9387 1.771-1.408 2.624-1.408 0.384 0 0.704 0.128 0.96 0.384 0.299 0.2133 0.448 0.5547 0.448 1.024 0 0.512-0.341 1.344-1.024 2.496-0.64 1.152-1.408 2.4747-2.304 3.968s-1.685 3.072-2.368 4.736c-0.64 1.6213-0.96 3.1787-0.96 4.672 0 1.536 0.256 2.56 0.768 3.072s1.301 0.768 2.368 0.768c1.451 0 2.987-0.7253 4.608-2.176 1.664-1.4507 3.413-3.9893 5.248-7.616l0.576 0.64c-1.237 3.6693-3.029 6.4853-5.376 8.448-2.304 1.9627-4.715 2.944-7.232 2.944zm7.68-29.312c-0.683 0-1.301-0.1707-1.856-0.512-0.512-0.3413-0.768-0.8747-0.768-1.6 0-0.896 0.512-1.664 1.536-2.304 1.067-0.6827 2.112-1.024 3.136-1.024 0.64 0 1.152 0.1493 1.536 0.448s0.576 0.8107 0.576 1.536c0 0.8107-0.448 1.6-1.344 2.368-0.853 0.7253-1.792 1.088-2.816 1.088zm5.582 45.568c-0.939 0-1.792-0.2987-2.561-0.896-0.768-0.5547-1.152-1.4933-1.152-2.816 0-1.28 0.406-2.4747 1.216-3.584 0.769-1.0667 1.771-2.0693 3.009-3.008 1.237-0.896 2.581-1.728 4.032-2.496 1.493-0.768 2.901-1.4933 4.224-2.176 0.597-1.4933 1.152-3.0933 1.664-4.8 0.554-1.7493 1.088-3.6693 1.6-5.76-1.622 2.3467-3.328 4.3093-5.12 5.888-1.75 1.536-3.52 2.304-5.312 2.304-1.536 0-2.731-0.576-3.584-1.728-0.811-1.152-1.217-2.6453-1.217-4.48 0-2.2187 0.534-4.3307 1.601-6.336 1.109-2.0053 2.538-3.776 4.288-5.312 1.749-1.536 3.605-2.7307 5.568-3.584 1.962-0.896 3.797-1.344 5.504-1.344 1.237 0 2.112 0.2133 2.623 0.64 0.555 0.384 0.833 0.8533 0.833 1.408 0 0.384-0.107 0.6827-0.32 0.896-0.214 0.2133-0.363 0.3413-0.448 0.384-0.214-0.3413-0.534-0.576-0.96-0.704-0.427-0.1707-0.96-0.256-1.6-0.256-1.664 0-3.286 0.4907-4.864 1.472-1.536 0.9813-2.902 2.24-4.096 3.776-1.195 1.536-2.155 3.136-2.88 4.8-0.683 1.6213-1.024 3.1147-1.024 4.48 0 1.024 0.192 1.8133 0.576 2.368 0.426 0.512 0.981 0.768 1.664 0.768 1.237 0 2.709-0.8107 4.416-2.432 1.749-1.664 3.434-3.6693 5.056-6.016 0.128-0.5973 0.234-1.1307 0.32-1.6 0.128-0.4693 0.277-1.0667 0.448-1.792 0.128-0.5973 0.426-1.28 0.896-2.048 0.512-0.8107 1.301-1.216 2.368-1.216 0.213 0 0.426 0.0213 0.64 0.064 0.213 0 0.448 0.0427 0.704 0.128 0 0.6827-0.214 1.9413-0.64 3.776-0.384 1.792-0.96 3.904-1.728 6.336-0.726 2.3893-1.579 4.864-2.56 7.424 1.408-0.6827 2.773-1.5573 4.096-2.624 1.365-1.0667 2.602-2.2827 3.712-3.648 1.109-1.408 1.984-2.9227 2.624-4.544l0.832 0.64c-0.64 1.92-1.664 3.6693-3.072 5.248s-2.923 2.944-4.544 4.096c-1.579 1.152-3.03 2.048-4.352 2.688-1.195 2.8587-2.454 5.4613-3.776 7.808-1.323 2.3893-2.71 4.288-4.16 5.696-1.408 1.408-2.923 2.112-4.544 2.112zm-0.192-2.048c0.853 0 2.005-0.8533 3.456-2.56 1.493-1.664 3.093-4.544 4.8-8.64-1.707 0.8533-3.307 1.728-4.8 2.624-1.451 0.9387-2.646 1.92-3.585 2.944-0.938 1.024-1.407 2.1547-1.407 3.392 0 0.6827 0.149 1.216 0.448 1.6 0.298 0.4267 0.661 0.64 1.088 0.64zm29.547-13.056c-2.603 0-4.566-0.7253-5.888-2.176-1.281-1.408-1.921-3.1573-1.921-5.248 0-1.92 0.47-3.9467 1.409-6.08 0.981-2.1333 2.261-4.1387 3.84-6.016 1.621-1.8773 3.392-3.392 5.312-4.544 1.92-1.1947 3.818-1.792 5.696-1.792 0.981 0 1.877 0.256 2.688 0.768 0.853 0.512 1.28 1.5573 1.28 3.136 0 1.6213-0.491 3.1573-1.472 4.608-0.939 1.408-2.198 2.6667-3.776 3.776-1.536 1.1093-3.243 2.0267-5.12 2.752-1.835 0.6827-3.67 1.1093-5.504 1.28-0.086 0.4267-0.15 0.832-0.192 1.216-0.043 0.384-0.064 0.7467-0.064 1.088 0 0.64 0.064 1.28 0.192 1.92 0.17 0.64 0.448 1.2373 0.831 1.792 0.385 0.512 0.897 0.9173 1.537 1.216 0.682 0.2987 1.514 0.448 2.496 0.448 1.834 0 3.648-0.512 5.44-1.536 1.792-1.0667 3.456-2.4533 4.992-4.16s2.837-3.584 3.904-5.632l0.768 0.576c-1.152 2.56-2.624 4.7787-4.416 6.656-1.75 1.8773-3.67 3.328-5.76 4.352-2.048 1.0667-4.139 1.6-6.272 1.6zm-3.136-10.752c1.152-0.384 2.453-0.9387 3.904-1.664 1.45-0.768 2.837-1.664 4.16-2.688 1.365-1.024 2.474-2.1547 3.328-3.392 0.896-1.2373 1.344-2.5387 1.344-3.904 0-0.4693-0.086-0.832-0.256-1.088-0.171-0.256-0.534-0.384-1.088-0.384-1.024 0-2.112 0.4053-3.264 1.216-1.152 0.768-2.262 1.792-3.328 3.072-1.067 1.28-2.027 2.688-2.88 4.224-0.854 1.536-1.494 3.072-1.92 4.608zm28.608 9.6c-1.451 0-2.603-0.384-3.456-1.152-0.811-0.768-1.216-1.7707-1.216-3.008 0-1.28 0.299-2.624 0.896-4.032s1.173-2.7947 1.728-4.16c0.597-1.408 0.896-2.6667 0.896-3.776 0-1.3653-0.405-2.368-1.216-3.008-0.768-0.6827-1.557-1.3013-2.368-1.856-0.981 2.5173-2.005 4.9067-3.072 7.168s-1.941 3.968-2.624 5.12l-0.576-1.088c0.597-1.1093 1.365-2.7307 2.304-4.864 0.981-2.1333 1.941-4.5653 2.88-7.296-0.427-0.4267-0.64-0.9387-0.64-1.536 0-1.28 0.363-2.3253 1.088-3.136s1.259-1.216 1.6-1.216c0.469 0 0.725 0.2133 0.768 0.64 0.085 0.384 0.128 0.6827 0.128 0.896s-0.128 0.64-0.384 1.28c-0.213 0.5973-0.32 0.96-0.32 1.088 0 0.5973 0.32 1.152 0.96 1.664 0.683 0.4693 1.451 1.024 2.304 1.664 0.853 0.5973 1.6 1.344 2.24 2.24 0.683 0.8533 1.024 1.9627 1.024 3.328 0 1.28-0.277 2.5813-0.832 3.904-0.512 1.3227-1.045 2.5813-1.6 3.776-0.512 1.1947-0.768 2.24-0.768 3.136 0 0.768 0.192 1.28 0.576 1.536s0.832 0.384 1.344 0.384c1.024 0 2.069-0.32 3.136-0.96 1.109-0.64 2.176-1.4507 3.2-2.432s1.941-2.0053 2.752-3.072c0.811-1.1093 1.408-2.1333 1.792-3.072l0.832 0.64c-0.811 1.792-1.92 3.5627-3.328 5.312-1.408 1.7067-2.987 3.1147-4.736 4.224-1.707 1.1093-3.477 1.664-5.312 1.664zm15.786 0c-1.664 0-2.901-0.5333-3.712-1.6-0.811-1.024-1.216-2.2827-1.216-3.776 0-0.9813 0.171-2.2187 0.512-3.712 0.384-1.4933 0.875-3.0507 1.472-4.672 0.597-1.664 1.28-3.2213 2.048-4.672 0.811-1.4507 1.664-2.624 2.56-3.52 0.896-0.9387 1.771-1.408 2.624-1.408 0.384 0 0.704 0.128 0.96 0.384 0.299 0.2133 0.448 0.5547 0.448 1.024 0 0.512-0.341 1.344-1.024 2.496-0.64 1.152-1.408 2.4747-2.304 3.968s-1.685 3.072-2.368 4.736c-0.64 1.6213-0.96 3.1787-0.96 4.672 0 1.536 0.256 2.56 0.768 3.072s1.301 0.768 2.368 0.768c1.451 0 2.987-0.7253 4.608-2.176 1.664-1.4507 3.413-3.9893 5.248-7.616l0.576 0.64c-1.237 3.6693-3.029 6.4853-5.376 8.448-2.304 1.9627-4.715 2.944-7.232 2.944zm7.68-29.312c-0.683 0-1.301-0.1707-1.856-0.512-0.512-0.3413-0.768-0.8747-0.768-1.6 0-0.896 0.512-1.664 1.536-2.304 1.067-0.6827 2.112-1.024 3.136-1.024 0.64 0 1.152 0.1493 1.536 0.448s0.576 0.8107 0.576 1.536c0 0.8107-0.448 1.6-1.344 2.368-0.853 0.7253-1.792 1.088-2.816 1.088zm7.566 29.696c-1.835 0-3.136-0.576-3.904-1.728-0.769-1.1093-1.153-2.4747-1.153-4.096 0-1.3227 0.214-2.688 0.64-4.096 0.427-1.408 0.982-2.7307 1.665-3.968 0.725-1.2373 1.514-2.24 2.368-3.008 0.896-0.768 1.792-1.152 2.688-1.152 0.213 0 0.426 0.0427 0.64 0.128 0.256 0.0427 0.49 0.1067 0.704 0.192-0.384 0.3413-0.854 0.9813-1.408 1.92-0.512 0.896-1.003 1.9413-1.472 3.136-0.47 1.152-0.875 2.304-1.216 3.456-0.299 1.152-0.448 2.1333-0.448 2.944 0 1.28 0.213 2.2187 0.64 2.816 0.426 0.5547 0.981 0.832 1.664 0.832 0.896 0 1.962-0.4693 3.2-1.408 1.237-0.9813 2.453-2.2187 3.648-3.712-1.195-0.9813-2.134-2.2613-2.816-3.84-0.64-1.6213-0.96-3.264-0.96-4.928 0-1.408 0.234-2.7307 0.704-3.968 0.512-1.2373 1.237-2.2187 2.176-2.944 0.938-0.768 2.069-1.152 3.392-1.152 1.749 0 2.922 0.4693 3.52 1.408 0.597 0.9387 0.896 2.112 0.896 3.52 0 1.664-0.406 3.52-1.216 5.568-0.811 2.0053-1.835 3.9467-3.072 5.824 0.768 0.4267 1.578 0.64 2.432 0.64 0.682 0 1.45-0.128 2.304-0.384 0.853-0.2987 1.685-0.7893 2.496-1.472 0.853-0.6827 1.536-1.6 2.048-2.752l0.768 0.64c-0.854 2.0053-2.07 3.4347-3.648 4.288-1.536 0.8107-3.008 1.216-4.416 1.216-0.555 0-1.088-0.0427-1.6-0.128-0.512-0.128-1.003-0.2987-1.472-0.512-1.451 1.92-3.051 3.52-4.801 4.8-1.706 1.28-3.37 1.92-4.991 1.92zm9.408-9.408c1.066-1.5787 1.941-3.2213 2.623-4.928 0.726-1.7493 1.089-3.392 1.089-4.928 0-1.2373-0.192-2.1333-0.576-2.688-0.342-0.5973-0.79-0.896-1.344-0.896-0.854 0-1.728 0.6187-2.624 1.856s-1.344 2.7947-1.344 4.672c0 1.2373 0.17 2.496 0.512 3.776 0.384 1.2373 0.938 2.2827 1.664 3.136zm16.271 10.624c-2.006 0-3.606-0.448-4.8-1.344-1.152-0.8533-1.963-1.92-2.433-3.2-0.512-1.28-0.768-2.56-0.768-3.84s0.171-2.2613 0.512-2.944c0.342-0.6827 0.747-1.1947 1.217-1.536 0.512-0.3413 0.981-0.5973 1.408-0.768 0.469-0.1707 0.789-0.3413 0.96-0.512 1.28-1.408 2.453-2.88 3.52-4.416 1.066-1.536 2.005-3.1573 2.816-4.864v-0.768c0-1.5787 0.256-2.688 0.768-3.328 0.554-0.6827 1.13-1.024 1.728-1.024 0.341 0 0.597 0.0853 0.768 0.256 0.17 0.1707 0.256 0.3627 0.256 0.576s-0.064 0.5547-0.192 1.024-0.192 1.0667-0.192 1.792c0 1.408 0.277 2.944 0.832 4.608 0.554 1.6213 1.109 3.3493 1.664 5.184 0.554 1.792 0.832 3.6693 0.832 5.632 0 0.5547-0.043 1.1093-0.128 1.664-0.043 0.512-0.128 1.0027-0.256 1.472 1.493-0.256 2.901-0.9173 4.224-1.984 1.322-1.1093 2.602-2.8587 3.84-5.248l0.576 0.64c-0.811 2.3467-2.027 4.1387-3.648 5.376-1.622 1.1947-3.392 1.9413-5.312 2.24-0.683 1.8347-1.771 3.1787-3.264 4.032-1.451 0.8533-3.094 1.28-4.928 1.28zm0.128-2.24c0.512 0 1.194-0.1707 2.048-0.512 0.853-0.3413 1.514-1.216 1.984-2.624-1.792-0.3413-3.392-1.0453-4.8-2.112-1.366-1.0667-2.39-2.1333-3.072-3.2-0.939 0.0427-1.408 0.7893-1.408 2.24 0 1.536 0.448 2.9653 1.344 4.288 0.938 1.28 2.24 1.92 3.904 1.92zm4.352-4.16c0.085-0.4267 0.149-0.8747 0.192-1.344 0.042-0.4693 0.064-1.024 0.064-1.664 0-2.0053-0.256-3.9893-0.768-5.952-0.47-2.0053-0.875-3.8827-1.216-5.632-0.982 1.6213-2.027 3.1787-3.136 4.672-1.067 1.4507-2.091 2.6667-3.072 3.648 0.64 1.3653 1.621 2.6453 2.944 3.84 1.365 1.1947 3.029 2.0053 4.992 2.432z" />
</symbol>
</svg>
