<svg width="381.4" height="100" viewBox="0 0 381.4 100" xmlns="http://www.w3.org/2000/svg"><g><path d="M 44.8 84.1 Q 42.6 84.1 39.65 81.35 A 37.291 37.291 0 0 1 37.117 78.727 Q 35.902 77.349 34.648 75.703 A 70.514 70.514 0 0 1 33.5 74.15 A 125.203 125.203 0 0 1 29.52 68.256 A 149.306 149.306 0 0 1 27.15 64.4 Q 24 59.1 21.35 53.8 A 224.022 224.022 0 0 1 19.194 49.373 Q 18.233 47.34 17.423 45.503 A 127.615 127.615 0 0 1 16.9 44.3 Q 14.1 54.1 11.5 63.55 Q 8.9 73 6.6 80.7 Q 4.1 80.7 2.05 79.3 A 5.357 5.357 0 0 1 0.889 78.25 A 3.944 3.944 0 0 1 0 75.7 A 6.097 6.097 0 0 1 0.071 74.812 Q 0.137 74.366 0.264 73.864 A 13.531 13.531 0 0 1 0.5 73.05 Q 1 71.5 1.4 70.2 Q 3.9 62.3 6.3 55.3 A 1499.283 1499.283 0 0 1 9.844 45.081 A 1347.437 1347.437 0 0 1 11 41.8 Q 13.3 35.3 15.75 28.9 Q 18.2 22.5 20.9 16 Q 23.6 9.5 26.7 2.5 A 37.899 37.899 0 0 0 23.236 3.237 Q 21.41 3.72 19.849 4.361 A 22.621 22.621 0 0 0 19.4 4.55 A 64.181 64.181 0 0 0 17.411 5.455 Q 16.529 5.875 15.776 6.274 A 27.87 27.87 0 0 0 14.4 7.05 Q 12.5 8.2 11.8 8.2 A 1.037 1.037 0 0 1 11.548 8.165 Q 11.189 8.074 10.65 7.75 Q 9.9 7.3 9.3 6.65 A 3.635 3.635 0 0 1 9.024 6.315 Q 8.758 5.947 8.711 5.634 A 0.892 0.892 0 0 1 8.7 5.5 A 117.281 117.281 0 0 1 11.148 4.499 Q 12.411 3.998 13.834 3.462 A 210.246 210.246 0 0 1 14.8 3.1 A 51.361 51.361 0 0 1 19.449 1.631 A 63.411 63.411 0 0 1 22.5 0.9 Q 26.7 0 31.2 0 A 37.786 37.786 0 0 1 39.395 0.923 A 42.008 42.008 0 0 1 39.95 1.05 Q 44.4 2.1 48.15 4.35 Q 51.9 6.6 54.2 10.15 Q 56.5 13.7 56.5 18.7 A 17.893 17.893 0 0 1 56.014 22.964 A 13.96 13.96 0 0 1 54.25 27.15 Q 52 30.7 48.35 33.1 Q 44.7 35.5 40.4 36.95 A 59.638 59.638 0 0 1 32.689 39.003 A 54.614 54.614 0 0 1 31.9 39.15 A 88.874 88.874 0 0 1 28.019 39.759 Q 26.176 40.005 24.52 40.134 A 53.467 53.467 0 0 1 24.3 40.15 Q 21.697 40.342 20.091 40.386 A 32.162 32.162 0 0 1 19.2 40.4 A 641.62 641.62 0 0 1 24.396 49.445 A 577.923 577.923 0 0 1 25.1 50.7 Q 27.9 55.7 31.2 60.65 Q 34.5 65.6 39 70.6 Q 43.5 75.6 49.9 80.8 Q 49.344 82.005 47.972 82.952 A 8.543 8.543 0 0 1 47.75 83.1 A 7.349 7.349 0 0 1 46.615 83.707 Q 45.942 83.99 45.299 84.069 A 4.059 4.059 0 0 1 44.8 84.1 Z M 217.2 55.8 L 218.5 56.8 Q 217 61.3 213.7 65 A 44.297 44.297 0 0 1 207.811 70.532 A 40.211 40.211 0 0 1 206.65 71.4 A 60.893 60.893 0 0 1 203.711 73.396 Q 201.641 74.71 199.8 75.6 A 129.454 129.454 0 0 1 196.183 83.526 A 105.975 105.975 0 0 1 193.9 87.85 A 52.075 52.075 0 0 1 191.54 91.696 Q 190.199 93.673 188.814 95.252 A 27.278 27.278 0 0 1 187.45 96.7 Q 184.1 100 180.3 100 Q 178.1 100 176.3 98.65 A 4.195 4.195 0 0 1 174.833 96.541 Q 174.594 95.816 174.527 94.924 A 9.642 9.642 0 0 1 174.5 94.2 Q 174.5 91.2 176.35 88.65 A 20.434 20.434 0 0 1 179.231 85.476 A 25.312 25.312 0 0 1 181.1 83.95 A 46.795 46.795 0 0 1 186.386 80.571 A 52.595 52.595 0 0 1 187.45 80 Q 190.9 78.2 194 76.6 A 92.534 92.534 0 0 0 195.692 72.01 A 110.269 110.269 0 0 0 196.65 69.05 Q 197.9 65 199.1 60.1 Q 195.3 65.6 191.15 69.25 A 17.752 17.752 0 0 1 188.293 71.327 Q 186.434 72.396 184.565 72.739 A 9.771 9.771 0 0 1 182.8 72.9 A 7.637 7.637 0 0 1 180.334 72.521 A 6.201 6.201 0 0 1 177.25 70.2 Q 175.438 67.691 175.31 63.801 A 18.232 18.232 0 0 1 175.3 63.2 Q 175.3 58 177.85 53.3 Q 180.4 48.6 184.5 45 A 35.458 35.458 0 0 1 190.932 40.472 A 31.822 31.822 0 0 1 193.2 39.35 Q 197.556 37.409 201.374 37.306 A 15.802 15.802 0 0 1 201.8 37.3 Q 204.264 37.3 205.536 37.986 A 3.153 3.153 0 0 1 205.95 38.25 A 3.773 3.773 0 0 1 206.636 38.911 A 2.504 2.504 0 0 1 207.2 40.5 Q 207.2 41.261 206.843 41.736 A 1.548 1.548 0 0 1 206.7 41.9 Q 206.266 42.334 206.058 42.467 A 0.649 0.649 0 0 1 206 42.5 Q 205.5 41.7 204.5 41.35 A 5.592 5.592 0 0 0 203.605 41.124 Q 203.159 41.046 202.644 41.018 A 11.489 11.489 0 0 0 202 41 Q 198.1 41 194.45 43.3 A 25.034 25.034 0 0 0 188.176 48.976 A 28.172 28.172 0 0 0 188 49.2 Q 185.2 52.8 183.55 56.65 A 23.238 23.238 0 0 0 182.482 59.671 Q 182.037 61.301 181.932 62.797 A 12.973 12.973 0 0 0 181.9 63.7 A 9.72 9.72 0 0 0 181.989 65.056 Q 182.086 65.746 182.291 66.306 A 3.972 3.972 0 0 0 182.85 67.35 Q 183.771 68.562 185.303 68.599 A 4.021 4.021 0 0 0 185.4 68.6 A 5.688 5.688 0 0 0 187.479 68.166 Q 189.175 67.498 191.178 65.804 A 27.149 27.149 0 0 0 192.35 64.75 A 52.859 52.859 0 0 0 196.797 59.934 A 69.283 69.283 0 0 0 200.2 55.4 A 251.7 251.7 0 0 1 200.471 54.154 Q 200.618 53.485 200.75 52.9 Q 200.988 51.855 201.361 50.268 A 691.699 691.699 0 0 1 201.4 50.1 A 7.107 7.107 0 0 1 201.744 48.99 Q 201.961 48.438 202.284 47.83 A 16.7 16.7 0 0 1 202.85 46.85 Q 204 45 206.5 45 Q 207 45 207.5 45.05 Q 207.969 45.097 208.525 45.275 A 7.074 7.074 0 0 1 208.6 45.3 Q 208.6 46.9 207.65 51.15 Q 206.7 55.4 204.95 61.05 Q 203.2 66.7 200.9 72.7 A 33.657 33.657 0 0 0 205.766 69.794 A 38.916 38.916 0 0 0 207.35 68.6 Q 210.5 66.1 213.1 62.85 Q 215.7 59.6 217.2 55.8 Z M 119.5 55.8 L 121 56.8 A 27.517 27.517 0 0 1 119.122 60.535 Q 117.937 62.481 116.536 63.899 A 13.759 13.759 0 0 1 114.65 65.5 A 21.215 21.215 0 0 1 112.448 66.865 Q 110.028 68.153 108.044 68.199 A 6.306 6.306 0 0 1 107.9 68.2 A 8.027 8.027 0 0 1 105.71 67.883 A 10.633 10.633 0 0 1 104.15 67.3 A 14.994 14.994 0 0 1 100.554 64.947 A 16.695 16.695 0 0 1 100.5 64.9 Q 100.5 71.2 99.15 77.4 A 66.618 66.618 0 0 1 97.189 84.548 A 54.579 54.579 0 0 1 95.6 88.7 A 41.174 41.174 0 0 1 93.749 92.48 Q 92.314 95.047 90.7 96.9 A 12.208 12.208 0 0 1 89.09 98.459 Q 87.145 100 85.1 100 A 3.095 3.095 0 0 1 85.077 100 Q 84.085 99.993 82.8 99.35 Q 81.786 98.843 80.985 97.575 A 8.911 8.911 0 0 1 80.55 96.8 Q 79.6 94.9 79.6 91.2 A 33.879 33.879 0 0 1 79.747 88.191 Q 80.069 84.597 81.1 79.75 Q 82.6 72.7 85.2 64.2 Q 87.8 55.7 91.2 46.75 Q 94.6 37.8 98.55 29.45 A 164.317 164.317 0 0 1 103.057 20.594 A 128.362 128.362 0 0 1 106.65 14.45 A 77.473 77.473 0 0 1 109.742 9.849 Q 112.3 6.338 114.8 3.9 Q 117.206 1.555 119.466 0.62 A 7.645 7.645 0 0 1 122.4 0 A 5.232 5.232 0 0 1 123.36 0.081 Q 124.663 0.325 125.15 1.3 A 5.951 5.951 0 0 1 125.671 2.896 Q 125.798 3.588 125.8 4.375 A 9.899 9.899 0 0 1 125.8 4.4 Q 125.8 8.267 123.9 12.781 A 33.472 33.472 0 0 1 123.45 13.8 A 51.415 51.415 0 0 1 119.907 20.195 A 63.654 63.654 0 0 1 117.2 24.05 Q 113.3 29.2 108.6 33.85 Q 103.9 38.5 99.1 41.8 Q 98.6 43 98.15 44.25 Q 97.7 45.5 97.2 46.8 A 2.612 2.612 0 0 1 98.929 47.919 A 3.307 3.307 0 0 1 98.95 47.95 Q 99.6 48.9 99.7 50 A 145.621 145.621 0 0 0 100.402 54.137 Q 100.788 56.22 101.2 58.05 A 18.584 18.584 0 0 0 101.885 60.402 Q 102.593 62.319 103.65 63.6 A 5.344 5.344 0 0 0 106.856 65.459 A 8.04 8.04 0 0 0 108.4 65.6 A 7.761 7.761 0 0 0 114.111 63.245 A 9.45 9.45 0 0 0 114.3 63.05 A 26.968 26.968 0 0 0 115.998 61.043 Q 116.83 59.964 117.706 58.653 A 65.38 65.38 0 0 0 119.5 55.8 Z M 346 56.1 L 347.2 57.1 A 16.442 16.442 0 0 1 345.427 60.296 A 11.378 11.378 0 0 1 341.55 63.75 Q 337.9 65.7 334.6 65.7 A 12.295 12.295 0 0 1 332.251 65.48 A 11.377 11.377 0 0 1 332.1 65.45 Q 330.9 65.2 329.8 64.7 Q 326.4 69.2 322.35 72.2 A 18.281 18.281 0 0 1 319.503 73.954 Q 317.752 74.808 316.051 75.077 A 9.929 9.929 0 0 1 314.5 75.2 Q 311.703 75.2 309.964 74.079 A 5.429 5.429 0 0 1 308.4 72.55 A 10.256 10.256 0 0 1 306.804 68.523 A 13.884 13.884 0 0 1 306.6 66.1 A 21.093 21.093 0 0 1 307.14 61.439 A 25.06 25.06 0 0 1 307.6 59.7 Q 308.6 56.4 310.25 53.5 A 21.34 21.34 0 0 1 311.885 51.023 A 15.684 15.684 0 0 1 313.95 48.8 A 8.699 8.699 0 0 1 315.366 47.775 Q 316.32 47.23 317.284 47.068 A 4.926 4.926 0 0 1 318.1 47 A 3.729 3.729 0 0 1 318.778 47.065 A 4.572 4.572 0 0 1 319.15 47.15 A 9.742 9.742 0 0 1 320.138 47.475 A 8.973 8.973 0 0 1 320.2 47.5 Q 319.465 48.154 318.495 49.71 A 28.267 28.267 0 0 0 318.05 50.45 A 33.287 33.287 0 0 0 316.701 53.039 A 43.267 43.267 0 0 0 315.7 55.35 A 52.685 52.685 0 0 0 313.898 60.631 A 48.638 48.638 0 0 0 313.85 60.8 A 25.492 25.492 0 0 0 313.408 62.637 Q 313.235 63.507 313.159 64.272 A 11.477 11.477 0 0 0 313.1 65.4 Q 313.1 68.027 313.867 69.388 A 3.449 3.449 0 0 0 314.1 69.75 Q 315.1 71.1 316.7 71.1 Q 318.617 71.1 321.2 69.226 A 19.47 19.47 0 0 0 321.7 68.85 A 29.963 29.963 0 0 0 324.753 66.107 A 40.525 40.525 0 0 0 327.4 63.1 A 14.503 14.503 0 0 1 323.846 58.728 A 17.942 17.942 0 0 1 323.05 57.05 Q 321.5 53.3 321.5 49.4 Q 321.5 46.1 322.65 43.2 A 11.86 11.86 0 0 1 324.275 40.304 A 10.183 10.183 0 0 1 326 38.55 A 8.031 8.031 0 0 1 330.423 36.837 A 10.336 10.336 0 0 1 331.3 36.8 A 11.903 11.903 0 0 1 333.182 36.938 Q 335.75 37.35 336.8 39 A 8.597 8.597 0 0 1 337.923 41.779 Q 338.174 42.913 338.198 44.227 A 15.237 15.237 0 0 1 338.2 44.5 A 18.954 18.954 0 0 1 337.783 48.343 Q 337.413 50.127 336.716 52.058 A 34.344 34.344 0 0 1 336.3 53.15 Q 334.4 57.9 331.5 62.3 Q 333.3 63.3 335.3 63.3 A 9.435 9.435 0 0 0 336.86 63.162 Q 337.582 63.041 338.369 62.814 A 16.91 16.91 0 0 0 338.9 62.65 A 10.905 10.905 0 0 0 341.196 61.581 A 14.477 14.477 0 0 0 342.85 60.4 A 10.529 10.529 0 0 0 345.064 57.863 A 13.687 13.687 0 0 0 346 56.1 Z M 118.6 61 L 117.7 59.3 Q 119.1 56.7 121.35 51.7 Q 123.6 46.7 125.8 40.3 A 3.27 3.27 0 0 1 124.801 37.944 A 3.89 3.89 0 0 1 124.8 37.9 A 8.649 8.649 0 0 1 125.07 35.684 A 6.425 6.425 0 0 1 126.5 33 A 16.95 16.95 0 0 1 127.154 32.307 Q 128.112 31.351 128.711 31.152 A 0.926 0.926 0 0 1 129 31.1 A 1.888 1.888 0 0 1 129.464 31.152 Q 130.067 31.306 130.221 31.908 A 1.55 1.55 0 0 1 130.25 32.05 Q 130.373 32.83 130.396 33.306 A 4.206 4.206 0 0 1 130.4 33.5 A 1.615 1.615 0 0 1 130.374 33.764 Q 130.296 34.224 129.986 35.085 A 23.542 23.542 0 0 1 129.85 35.45 A 35.513 35.513 0 0 0 129.663 35.953 Q 129.319 36.905 129.301 37.173 A 0.412 0.412 0 0 0 129.3 37.2 Q 129.3 38.6 130.85 39.75 Q 132.182 40.738 133.847 41.948 A 548.033 548.033 0 0 0 134.4 42.35 Q 136.4 43.8 137.95 45.85 A 7.414 7.414 0 0 1 139.254 48.733 Q 139.493 49.791 139.5 51.021 A 13.119 13.119 0 0 1 139.5 51.1 A 14.386 14.386 0 0 1 139.5 51.147 Q 139.491 54.124 138.25 57.2 Q 137 60.3 135.75 63.1 A 18.056 18.056 0 0 0 135.039 64.942 Q 134.5 66.622 134.5 68 Q 134.5 69.64 135.247 70.284 A 1.557 1.557 0 0 0 135.4 70.4 A 3.579 3.579 0 0 0 137.079 70.981 A 4.5 4.5 0 0 0 137.5 71 A 8.545 8.545 0 0 0 140.326 70.499 A 11.989 11.989 0 0 0 142.45 69.5 A 25.453 25.453 0 0 0 145.886 67.06 A 30.495 30.495 0 0 0 147.4 65.7 Q 149.8 63.4 151.7 60.85 Q 153.283 58.726 154.172 56.845 A 15.348 15.348 0 0 0 154.5 56.1 L 155.8 57.1 A 35.465 35.465 0 0 1 152.615 62.676 A 43.092 43.092 0 0 1 150.6 65.35 A 32.321 32.321 0 0 1 145.289 70.563 A 28.946 28.946 0 0 1 143.25 72 A 16.861 16.861 0 0 1 139.007 73.99 A 14.161 14.161 0 0 1 134.9 74.6 A 10.386 10.386 0 0 1 132.734 74.387 Q 131.321 74.086 130.252 73.358 A 6.075 6.075 0 0 1 129.55 72.8 A 5.973 5.973 0 0 1 127.621 68.678 A 8.153 8.153 0 0 1 127.6 68.1 A 14.471 14.471 0 0 1 128.094 64.432 A 19.162 19.162 0 0 1 129 61.8 Q 130.4 58.5 131.75 55.25 A 20.755 20.755 0 0 0 132.573 52.904 Q 133.1 51.025 133.1 49.4 Q 133.1 46.2 131.25 44.65 Q 129.4 43.1 127.5 41.8 Q 125.2 47.7 122.7 53 A 194.074 194.074 0 0 1 121.507 55.488 Q 120.2 58.158 119.191 59.971 A 44.419 44.419 0 0 1 118.6 61 Z M 249.7 61 L 248.8 59.3 Q 250.2 56.7 252.45 51.7 Q 254.7 46.7 256.9 40.3 A 3.27 3.27 0 0 1 255.901 37.944 A 3.89 3.89 0 0 1 255.9 37.9 A 8.649 8.649 0 0 1 256.17 35.684 A 6.425 6.425 0 0 1 257.6 33 A 16.95 16.95 0 0 1 258.254 32.307 Q 259.212 31.351 259.811 31.152 A 0.926 0.926 0 0 1 260.1 31.1 A 1.888 1.888 0 0 1 260.564 31.152 Q 261.167 31.306 261.321 31.908 A 1.55 1.55 0 0 1 261.35 32.05 Q 261.473 32.83 261.496 33.306 A 4.206 4.206 0 0 1 261.5 33.5 A 1.615 1.615 0 0 1 261.474 33.764 Q 261.396 34.224 261.086 35.085 A 23.542 23.542 0 0 1 260.95 35.45 A 35.513 35.513 0 0 0 260.763 35.953 Q 260.419 36.905 260.401 37.173 A 0.412 0.412 0 0 0 260.4 37.2 Q 260.4 38.6 261.95 39.75 Q 263.282 40.738 264.947 41.948 A 548.033 548.033 0 0 0 265.5 42.35 Q 267.5 43.8 269.05 45.85 A 7.414 7.414 0 0 1 270.354 48.733 Q 270.593 49.791 270.6 51.021 A 13.119 13.119 0 0 1 270.6 51.1 A 14.386 14.386 0 0 1 270.6 51.147 Q 270.591 54.124 269.35 57.2 Q 268.1 60.3 266.85 63.1 A 18.056 18.056 0 0 0 266.139 64.942 Q 265.6 66.622 265.6 68 Q 265.6 69.64 266.347 70.284 A 1.557 1.557 0 0 0 266.5 70.4 A 3.579 3.579 0 0 0 268.179 70.981 A 4.5 4.5 0 0 0 268.6 71 A 8.545 8.545 0 0 0 271.426 70.499 A 11.989 11.989 0 0 0 273.55 69.5 A 25.453 25.453 0 0 0 276.986 67.06 A 30.495 30.495 0 0 0 278.5 65.7 Q 280.9 63.4 282.8 60.85 Q 284.383 58.726 285.272 56.845 A 15.348 15.348 0 0 0 285.6 56.1 L 286.9 57.1 A 35.465 35.465 0 0 1 283.715 62.676 A 43.092 43.092 0 0 1 281.7 65.35 A 32.321 32.321 0 0 1 276.389 70.563 A 28.946 28.946 0 0 1 274.35 72 A 16.861 16.861 0 0 1 270.107 73.99 A 14.161 14.161 0 0 1 266 74.6 A 10.386 10.386 0 0 1 263.834 74.387 Q 262.421 74.086 261.352 73.358 A 6.075 6.075 0 0 1 260.65 72.8 A 5.973 5.973 0 0 1 258.721 68.678 A 8.153 8.153 0 0 1 258.7 68.1 A 14.471 14.471 0 0 1 259.194 64.432 A 19.162 19.162 0 0 1 260.1 61.8 Q 261.5 58.5 262.85 55.25 A 20.755 20.755 0 0 0 263.673 52.904 Q 264.2 51.025 264.2 49.4 Q 264.2 46.2 262.35 44.65 Q 260.5 43.1 258.6 41.8 Q 256.3 47.7 253.8 53 A 194.074 194.074 0 0 1 252.607 55.488 Q 251.3 58.158 250.291 59.971 A 44.419 44.419 0 0 1 249.7 61 Z M 88.4 55.8 L 89.6 56.7 A 38.699 38.699 0 0 1 84.97 64.499 A 34.54 34.54 0 0 1 82.75 67.1 A 34.719 34.719 0 0 1 77.289 71.838 A 29.735 29.735 0 0 1 73.75 73.95 A 22.673 22.673 0 0 1 67.359 76.104 A 20.349 20.349 0 0 1 63.9 76.4 A 17.65 17.65 0 0 1 60.386 76.073 Q 58.34 75.657 56.776 74.712 A 9.065 9.065 0 0 1 54.75 73.05 Q 51.7 69.7 51.7 64.8 A 20.368 20.368 0 0 1 52.412 59.579 A 27.753 27.753 0 0 1 53.95 55.3 A 39.353 39.353 0 0 1 59.921 45.935 A 43.151 43.151 0 0 1 59.95 45.9 A 36.04 36.04 0 0 1 65.461 40.63 A 31.684 31.684 0 0 1 68.2 38.75 A 20.295 20.295 0 0 1 72.119 36.87 A 15.115 15.115 0 0 1 77.1 36 Q 79.4 36 81.35 37.2 A 3.578 3.578 0 0 1 82.75 38.874 Q 83.296 40.125 83.3 42.071 A 14.038 14.038 0 0 1 83.3 42.1 A 12.531 12.531 0 0 1 81.223 48.988 A 15.179 15.179 0 0 1 81.05 49.25 Q 78.8 52.6 75.15 55.2 Q 71.5 57.8 67.15 59.45 A 33.683 33.683 0 0 1 60.249 61.286 A 30.478 30.478 0 0 1 58.5 61.5 A 23.767 23.767 0 0 0 58.289 62.711 A 19.875 19.875 0 0 0 58.2 63.4 A 16.544 16.544 0 0 0 58.114 64.486 A 13.732 13.732 0 0 0 58.1 65.1 Q 58.1 66.6 58.45 68.1 Q 58.8 69.6 59.7 70.85 A 5.787 5.787 0 0 0 61.592 72.518 A 7.101 7.101 0 0 0 62.15 72.8 A 7.298 7.298 0 0 0 63.709 73.291 Q 64.452 73.441 65.311 73.484 A 14.017 14.017 0 0 0 66 73.5 Q 70.3 73.5 74.5 71.05 Q 78.7 68.6 82.3 64.6 Q 85.9 60.6 88.4 55.8 Z M 250.7 55.8 L 251.9 56.7 A 38.699 38.699 0 0 1 247.27 64.499 A 34.54 34.54 0 0 1 245.05 67.1 A 34.719 34.719 0 0 1 239.589 71.838 A 29.735 29.735 0 0 1 236.05 73.95 A 22.673 22.673 0 0 1 229.659 76.104 A 20.349 20.349 0 0 1 226.2 76.4 A 17.65 17.65 0 0 1 222.686 76.073 Q 220.64 75.657 219.076 74.712 A 9.065 9.065 0 0 1 217.05 73.05 Q 214 69.7 214 64.8 A 20.368 20.368 0 0 1 214.712 59.579 A 27.753 27.753 0 0 1 216.25 55.3 A 39.353 39.353 0 0 1 222.221 45.935 A 43.151 43.151 0 0 1 222.25 45.9 A 36.04 36.04 0 0 1 227.761 40.63 A 31.684 31.684 0 0 1 230.5 38.75 A 20.295 20.295 0 0 1 234.419 36.87 A 15.115 15.115 0 0 1 239.4 36 Q 241.7 36 243.65 37.2 A 3.578 3.578 0 0 1 245.05 38.874 Q 245.596 40.125 245.6 42.071 A 14.038 14.038 0 0 1 245.6 42.1 A 12.531 12.531 0 0 1 243.523 48.988 A 15.179 15.179 0 0 1 243.35 49.25 Q 241.1 52.6 237.45 55.2 Q 233.8 57.8 229.45 59.45 A 33.683 33.683 0 0 1 222.549 61.286 A 30.478 30.478 0 0 1 220.8 61.5 A 23.767 23.767 0 0 0 220.589 62.711 A 19.875 19.875 0 0 0 220.5 63.4 A 16.544 16.544 0 0 0 220.414 64.486 A 13.732 13.732 0 0 0 220.4 65.1 Q 220.4 66.6 220.75 68.1 Q 221.1 69.6 222 70.85 A 5.787 5.787 0 0 0 223.892 72.518 A 7.101 7.101 0 0 0 224.45 72.8 A 7.298 7.298 0 0 0 226.009 73.291 Q 226.752 73.441 227.611 73.484 A 14.017 14.017 0 0 0 228.3 73.5 Q 232.6 73.5 236.8 71.05 Q 241 68.6 244.6 64.6 Q 248.2 60.6 250.7 55.8 Z M 358.4 40.5 L 358.4 39.3 Q 358.4 36.231 359.26 34.641 A 3.878 3.878 0 0 1 359.65 34.05 Q 360.43 33.083 361.268 32.72 A 2.569 2.569 0 0 1 362.3 32.5 A 2.55 2.55 0 0 1 362.751 32.537 Q 363.222 32.622 363.5 32.9 A 1.474 1.474 0 0 1 363.759 33.242 A 1.16 1.16 0 0 1 363.9 33.8 A 2.542 2.542 0 0 1 363.882 34.088 Q 363.825 34.575 363.6 35.4 A 7.414 7.414 0 0 0 363.418 36.31 Q 363.3 37.138 363.3 38.2 A 19.398 19.398 0 0 0 363.667 41.862 A 26.656 26.656 0 0 0 364.6 45.35 Q 365.9 49.2 367.2 53.45 Q 368.5 57.7 368.5 62.3 Q 368.5 63.6 368.35 64.85 A 17.018 17.018 0 0 1 368.057 66.57 A 14.686 14.686 0 0 1 367.9 67.2 Q 371.4 66.6 374.5 64.05 A 16.612 16.612 0 0 0 376.703 61.823 Q 377.673 60.656 378.622 59.175 A 41.041 41.041 0 0 0 380.5 55.9 L 381.4 56.9 A 21.097 21.097 0 0 1 379.543 60.932 A 15.032 15.032 0 0 1 375.7 65.25 Q 371.9 68.1 367.4 68.8 Q 365.8 73.1 362.35 75.1 A 14.954 14.954 0 0 1 355.465 77.08 A 17.956 17.956 0 0 1 354.6 77.1 A 17.447 17.447 0 0 1 351.603 76.859 Q 348.956 76.396 347.15 75.05 A 11.703 11.703 0 0 1 344.257 71.992 A 10.882 10.882 0 0 1 343.25 70 A 17.031 17.031 0 0 1 342.155 65.313 A 15.7 15.7 0 0 1 342.1 64 Q 342.1 61 342.9 59.4 A 7.922 7.922 0 0 1 343.608 58.232 Q 344.076 57.599 344.63 57.164 A 4.671 4.671 0 0 1 344.85 57 Q 345.962 56.227 346.981 55.827 A 7.542 7.542 0 0 1 347.05 55.8 Q 348.1 55.4 348.5 55 Q 351.5 51.7 354 48.1 Q 356.5 44.5 358.4 40.5 Z M 178.4 55.8 L 179.3 56.8 Q 176.673 64.592 171.952 69.1 A 21.944 21.944 0 0 1 170.95 70 A 21.835 21.835 0 0 1 166.624 72.892 A 15.582 15.582 0 0 1 159.6 74.6 Q 156.454 74.6 154.61 73.006 A 5.932 5.932 0 0 1 153.8 72.15 A 9.016 9.016 0 0 1 151.982 67.604 A 11.798 11.798 0 0 1 151.9 66.2 Q 151.9 64.655 152.284 62.568 A 39.423 39.423 0 0 1 152.75 60.4 A 64.863 64.863 0 0 1 154.028 55.888 A 78.669 78.669 0 0 1 155 53.05 A 53.414 53.414 0 0 1 158.021 46.227 A 49.306 49.306 0 0 1 158.25 45.8 A 31.029 31.029 0 0 1 159.917 43.064 Q 160.812 41.76 161.76 40.718 A 17.836 17.836 0 0 1 162.2 40.25 Q 163.501 38.918 164.764 38.411 A 4.102 4.102 0 0 1 166.3 38.1 A 2.459 2.459 0 0 1 167.21 38.265 A 2.282 2.282 0 0 1 167.85 38.65 A 1.752 1.752 0 0 1 168.409 39.552 Q 168.5 39.887 168.5 40.3 Q 168.5 41.413 167.167 43.816 A 30.151 30.151 0 0 1 166.95 44.2 Q 165.618 46.52 163.88 49.432 A 527.778 527.778 0 0 1 163.3 50.4 Q 161.2 53.9 159.65 57.75 Q 158.1 61.6 158.1 65.1 A 16.948 16.948 0 0 0 158.166 66.656 Q 158.382 68.981 159.3 69.9 A 3.696 3.696 0 0 0 160.711 70.761 Q 161.297 70.968 162.019 71.048 A 8.857 8.857 0 0 0 163 71.1 A 7.976 7.976 0 0 0 166.047 70.455 Q 167.221 69.972 168.442 69.127 A 19.563 19.563 0 0 0 170.25 67.7 A 20.815 20.815 0 0 0 172.669 65.116 Q 175.427 61.677 178.4 55.8 Z M 309.5 55.8 L 310.4 56.8 Q 307.773 64.592 303.052 69.1 A 21.944 21.944 0 0 1 302.05 70 A 21.835 21.835 0 0 1 297.724 72.892 A 15.582 15.582 0 0 1 290.7 74.6 Q 287.554 74.6 285.71 73.006 A 5.932 5.932 0 0 1 284.9 72.15 A 9.016 9.016 0 0 1 283.082 67.604 A 11.798 11.798 0 0 1 283 66.2 Q 283 64.655 283.384 62.568 A 39.423 39.423 0 0 1 283.85 60.4 A 64.863 64.863 0 0 1 285.128 55.888 A 78.669 78.669 0 0 1 286.1 53.05 A 53.414 53.414 0 0 1 289.121 46.227 A 49.306 49.306 0 0 1 289.35 45.8 A 31.029 31.029 0 0 1 291.017 43.064 Q 291.912 41.76 292.86 40.718 A 17.836 17.836 0 0 1 293.3 40.25 Q 294.601 38.918 295.864 38.411 A 4.102 4.102 0 0 1 297.4 38.1 A 2.459 2.459 0 0 1 298.31 38.265 A 2.282 2.282 0 0 1 298.95 38.65 A 1.752 1.752 0 0 1 299.509 39.552 Q 299.6 39.887 299.6 40.3 Q 299.6 41.413 298.267 43.816 A 30.151 30.151 0 0 1 298.05 44.2 Q 296.718 46.52 294.98 49.432 A 527.778 527.778 0 0 1 294.4 50.4 Q 292.3 53.9 290.75 57.75 Q 289.2 61.6 289.2 65.1 A 16.948 16.948 0 0 0 289.266 66.656 Q 289.482 68.981 290.4 69.9 A 3.696 3.696 0 0 0 291.811 70.761 Q 292.397 70.968 293.119 71.048 A 8.857 8.857 0 0 0 294.1 71.1 A 7.976 7.976 0 0 0 297.147 70.455 Q 298.321 69.972 299.542 69.127 A 19.563 19.563 0 0 0 301.35 67.7 A 20.815 20.815 0 0 0 303.769 65.116 Q 306.527 61.677 309.5 55.8 Z M 18.5 38.8 A 55.102 55.102 0 0 0 28.757 37.227 A 60.799 60.799 0 0 0 29.45 37.05 A 42.019 42.019 0 0 0 37.542 34.052 A 37.81 37.81 0 0 0 39.6 32.95 A 23.254 23.254 0 0 0 45.179 28.531 A 21.225 21.225 0 0 0 47 26.25 Q 49.8 22.2 49.8 16.6 Q 49.8 11.1 47.2 7.95 A 14.209 14.209 0 0 0 40.755 3.536 A 16.947 16.947 0 0 0 40.5 3.45 Q 36.4 2.1 31.9 2.1 A 116.057 116.057 0 0 0 29.35 7.662 Q 27.889 11.07 26.429 14.986 A 212.5 212.5 0 0 0 25.1 18.65 Q 21.7 28.3 18.5 38.8 Z M 87.7 95.2 A 1.565 1.565 0 0 0 88.445 94.99 Q 89.014 94.682 89.651 93.922 A 10.505 10.505 0 0 0 90.2 93.2 A 19.692 19.692 0 0 0 91.243 91.524 Q 91.756 90.608 92.262 89.52 A 41.575 41.575 0 0 0 92.95 87.95 A 58.869 58.869 0 0 0 94.522 83.691 A 72.72 72.72 0 0 0 95.4 80.8 Q 96.5 76.9 97.2 73 A 49.167 49.167 0 0 0 97.679 69.741 Q 97.859 68.118 97.893 66.663 A 28.598 28.598 0 0 0 97.9 66 A 20.827 20.827 0 0 0 97.651 62.708 A 16.666 16.666 0 0 0 97.1 60.35 Q 96.504 58.448 95.35 56.016 A 59.885 59.885 0 0 0 94.5 54.3 A 360.834 360.834 0 0 0 91.032 65.269 A 318.62 318.62 0 0 0 90 68.8 Q 88.282 74.816 87.228 79.797 A 112.41 112.41 0 0 0 86.9 81.4 A 81.23 81.23 0 0 0 86.32 84.685 Q 85.835 87.838 85.803 90.085 A 21.964 21.964 0 0 0 85.8 90.4 A 18.528 18.528 0 0 0 85.857 91.908 Q 86.057 94.345 86.971 94.978 A 1.251 1.251 0 0 0 87.7 95.2 Z M 100.7 37.7 A 112.752 112.752 0 0 0 107.802 30.558 A 91.4 91.4 0 0 0 111.95 25.65 A 111.608 111.608 0 0 0 115.211 21.295 Q 117.675 17.819 119.3 14.85 A 48.462 48.462 0 0 0 120.313 12.904 Q 121.761 9.947 121.888 8.387 A 3.542 3.542 0 0 0 121.9 8.1 A 2.015 2.015 0 0 0 121.831 7.546 Q 121.653 6.925 121.019 6.76 A 2.063 2.063 0 0 0 120.5 6.7 A 4.06 4.06 0 0 0 118.675 7.18 Q 116.792 8.128 114.6 10.95 Q 112.138 14.121 109.509 18.823 A 110.073 110.073 0 0 0 107.7 22.2 Q 104.1 29.2 100.7 37.7 Z M 64.116 57.446 A 63.326 63.326 0 0 0 65.1 56.95 Q 68.5 55.2 71.65 52.8 A 25.888 25.888 0 0 0 75.273 49.477 A 22.105 22.105 0 0 0 76.85 47.5 A 11.479 11.479 0 0 0 78.404 44.477 A 9.744 9.744 0 0 0 78.9 41.4 A 4.876 4.876 0 0 0 78.861 40.761 Q 78.775 40.113 78.5 39.7 A 1.112 1.112 0 0 0 78.039 39.317 Q 77.655 39.135 77.04 39.106 A 5.098 5.098 0 0 0 76.8 39.1 A 7.193 7.193 0 0 0 74.405 39.534 Q 73.462 39.866 72.477 40.452 A 14.496 14.496 0 0 0 71.7 40.95 A 23.1 23.1 0 0 0 68.726 43.395 A 30.237 30.237 0 0 0 66.5 45.8 Q 64 48.8 62 52.4 A 34.613 34.613 0 0 0 59.723 57.35 A 30.043 30.043 0 0 0 59 59.6 Q 61.303 58.832 64.116 57.446 Z M 226.416 57.446 A 63.326 63.326 0 0 0 227.4 56.95 Q 230.8 55.2 233.95 52.8 A 25.888 25.888 0 0 0 237.573 49.477 A 22.105 22.105 0 0 0 239.15 47.5 A 11.479 11.479 0 0 0 240.704 44.477 A 9.744 9.744 0 0 0 241.2 41.4 A 4.876 4.876 0 0 0 241.161 40.761 Q 241.075 40.113 240.8 39.7 A 1.112 1.112 0 0 0 240.339 39.317 Q 239.955 39.135 239.34 39.106 A 5.098 5.098 0 0 0 239.1 39.1 A 7.193 7.193 0 0 0 236.705 39.534 Q 235.762 39.866 234.777 40.452 A 14.496 14.496 0 0 0 234 40.95 A 23.1 23.1 0 0 0 231.026 43.395 A 30.237 30.237 0 0 0 228.8 45.8 Q 226.3 48.8 224.3 52.4 A 34.613 34.613 0 0 0 222.023 57.35 A 30.043 30.043 0 0 0 221.3 59.6 Q 223.603 58.832 226.416 57.446 Z M 361.6 67.1 A 19.451 19.451 0 0 0 361.859 65.409 A 21.948 21.948 0 0 0 361.9 65 A 21.766 21.766 0 0 0 361.961 64.119 Q 361.986 63.631 361.995 63.081 A 40.906 40.906 0 0 0 362 62.4 Q 362 57.7 360.85 53.05 Q 359.7 48.4 358.9 44.3 Q 356.6 48.1 354.05 51.55 Q 351.998 54.326 350.108 56.358 A 36.317 36.317 0 0 1 349.2 57.3 A 16.847 16.847 0 0 0 351.563 60.959 A 22.249 22.249 0 0 0 353.85 63.3 Q 357 66.1 361.6 67.1 Z M 180 96.8 A 2.973 2.973 0 0 0 181.221 96.496 Q 182.957 95.705 185.45 92.85 Q 188.307 89.579 191.541 82.435 A 113.16 113.16 0 0 0 192.9 79.3 A 94.634 94.634 0 0 0 187.266 82.352 A 82.001 82.001 0 0 0 185.45 83.45 A 32.225 32.225 0 0 0 182.491 85.521 Q 181.064 86.65 179.948 87.841 A 19.642 19.642 0 0 0 179.8 88 A 8.876 8.876 0 0 0 178.306 90.175 A 7.18 7.18 0 0 0 177.6 93.3 A 5.949 5.949 0 0 0 177.683 94.323 Q 177.841 95.227 178.3 95.85 A 2.748 2.748 0 0 0 178.792 96.371 A 1.885 1.885 0 0 0 180 96.8 Z M 329.2 60.5 Q 331.7 56.8 333.35 52.75 A 23.947 23.947 0 0 0 334.535 49.052 A 17.735 17.735 0 0 0 335 45.1 Q 335 42.555 334.346 41.203 A 3.65 3.65 0 0 0 334.15 40.85 A 3.631 3.631 0 0 0 333.606 40.168 A 2.242 2.242 0 0 0 332 39.5 Q 330 39.5 327.9 42.4 A 10.731 10.731 0 0 0 326.121 46.492 A 15.248 15.248 0 0 0 325.8 49.7 A 20.988 20.988 0 0 0 326.598 55.366 A 23.378 23.378 0 0 0 326.65 55.55 Q 327.5 58.5 329.2 60.5 Z M 357.621 72.947 A 19.399 19.399 0 0 0 358 72.8 A 4.024 4.024 0 0 0 359.553 71.651 Q 360.459 70.598 361.081 68.757 A 14.585 14.585 0 0 0 361.1 68.7 Q 356.9 67.9 353.65 65.4 A 27.871 27.871 0 0 1 351.445 63.525 Q 350.417 62.549 349.641 61.572 A 14.125 14.125 0 0 1 348.8 60.4 Q 346.646 60.498 346.601 63.762 A 10.2 10.2 0 0 0 346.6 63.9 Q 346.6 67.5 348.75 70.55 A 6.832 6.832 0 0 0 353.681 73.533 A 9.065 9.065 0 0 0 354.8 73.6 Q 355.884 73.6 357.621 72.947 Z M 169.791 28.507 A 5.454 5.454 0 0 0 171.6 28.8 A 6.275 6.275 0 0 0 174.138 28.269 A 7.696 7.696 0 0 0 176.05 27.05 Q 177.043 26.202 177.555 25.32 A 3.784 3.784 0 0 0 178.1 23.4 A 5.35 5.35 0 0 0 178.062 22.741 Q 177.915 21.556 177.2 21 A 2.889 2.889 0 0 0 176.814 20.747 Q 175.998 20.3 174.8 20.3 Q 172.4 20.3 169.95 21.85 Q 168.955 22.48 168.364 23.2 A 3.549 3.549 0 0 0 167.5 25.5 A 4.027 4.027 0 0 0 167.541 26.082 A 2.614 2.614 0 0 0 168.75 28 A 4.951 4.951 0 0 0 169.791 28.507 Z M 300.891 28.507 A 5.454 5.454 0 0 0 302.7 28.8 A 6.275 6.275 0 0 0 305.238 28.269 A 7.696 7.696 0 0 0 307.15 27.05 Q 308.143 26.202 308.655 25.32 A 3.784 3.784 0 0 0 309.2 23.4 A 5.35 5.35 0 0 0 309.162 22.741 Q 309.015 21.556 308.3 21 A 2.889 2.889 0 0 0 307.914 20.747 Q 307.098 20.3 305.9 20.3 Q 303.5 20.3 301.05 21.85 Q 300.055 22.48 299.464 23.2 A 3.549 3.549 0 0 0 298.6 25.5 A 4.027 4.027 0 0 0 298.641 26.082 A 2.614 2.614 0 0 0 299.85 28 A 4.951 4.951 0 0 0 300.891 28.507 Z" vector-effect="non-scaling-stroke"/></g></svg>

